<mxfile host="app.diagrams.net" modified="2024-02-03T16:51:30.164Z" agent="Mozilla/5.0 (Windows NT 10.0; Win64; x64) AppleWebKit/537.36 (KHTML, like Gecko) Chrome/121.0.0.0 Safari/537.36" etag="nSn_DHscEEy1I5mSjce4" version="23.0.2" type="device">
  <diagram name="Page-1" id="75P4kq5jWjCw0nrqWp4V">
    <mxGraphModel dx="1050" dy="557" grid="0" gridSize="10" guides="1" tooltips="1" connect="1" arrows="1" fold="1" page="1" pageScale="1" pageWidth="827" pageHeight="1169" math="0" shadow="0">
      <root>
        <mxCell id="0" />
        <mxCell id="1" parent="0" />
        <mxCell id="TXgYef9cbjbsVy3rm6Yb-3" value="" style="ellipse;html=1;shape=startState;fillColor=#000000;strokeColor=#ff0000;" vertex="1" parent="1">
          <mxGeometry x="396" y="7" width="30" height="30" as="geometry" />
        </mxCell>
        <mxCell id="TXgYef9cbjbsVy3rm6Yb-4" value="" style="edgeStyle=orthogonalEdgeStyle;html=1;verticalAlign=bottom;endArrow=open;endSize=8;strokeColor=#ff0000;rounded=0;entryX=0.481;entryY=0;entryDx=0;entryDy=0;entryPerimeter=0;" edge="1" source="TXgYef9cbjbsVy3rm6Yb-3" parent="1" target="TXgYef9cbjbsVy3rm6Yb-7">
          <mxGeometry relative="1" as="geometry">
            <mxPoint x="411" y="107" as="targetPoint" />
          </mxGeometry>
        </mxCell>
        <mxCell id="TXgYef9cbjbsVy3rm6Yb-5" value="Start&lt;br&gt;" style="text;html=1;strokeColor=none;fillColor=none;align=center;verticalAlign=middle;whiteSpace=wrap;rounded=0;" vertex="1" parent="1">
          <mxGeometry x="429" y="7" width="60" height="30" as="geometry" />
        </mxCell>
        <mxCell id="TXgYef9cbjbsVy3rm6Yb-12" style="edgeStyle=orthogonalEdgeStyle;rounded=0;orthogonalLoop=1;jettySize=auto;html=1;entryX=0.5;entryY=0;entryDx=0;entryDy=0;" edge="1" parent="1" source="TXgYef9cbjbsVy3rm6Yb-7" target="TXgYef9cbjbsVy3rm6Yb-11">
          <mxGeometry relative="1" as="geometry" />
        </mxCell>
        <mxCell id="TXgYef9cbjbsVy3rm6Yb-7" value="Login/signup" style="rhombus;whiteSpace=wrap;html=1;fillColor=#dae8fc;strokeColor=#6c8ebf;" vertex="1" parent="1">
          <mxGeometry x="360" y="73" width="108" height="83" as="geometry" />
        </mxCell>
        <mxCell id="TXgYef9cbjbsVy3rm6Yb-19" style="edgeStyle=orthogonalEdgeStyle;rounded=0;orthogonalLoop=1;jettySize=auto;html=1;" edge="1" parent="1" source="TXgYef9cbjbsVy3rm6Yb-9" target="TXgYef9cbjbsVy3rm6Yb-18">
          <mxGeometry relative="1" as="geometry" />
        </mxCell>
        <mxCell id="TXgYef9cbjbsVy3rm6Yb-9" value="Login successfully" style="rounded=1;whiteSpace=wrap;html=1;fillColor=#d5e8d4;strokeColor=#82b366;" vertex="1" parent="1">
          <mxGeometry x="227" y="185" width="120" height="60" as="geometry" />
        </mxCell>
        <mxCell id="TXgYef9cbjbsVy3rm6Yb-10" style="edgeStyle=orthogonalEdgeStyle;rounded=0;orthogonalLoop=1;jettySize=auto;html=1;entryX=0.45;entryY=0.033;entryDx=0;entryDy=0;entryPerimeter=0;" edge="1" parent="1" source="TXgYef9cbjbsVy3rm6Yb-7" target="TXgYef9cbjbsVy3rm6Yb-9">
          <mxGeometry relative="1" as="geometry" />
        </mxCell>
        <mxCell id="TXgYef9cbjbsVy3rm6Yb-13" style="edgeStyle=orthogonalEdgeStyle;rounded=0;orthogonalLoop=1;jettySize=auto;html=1;entryX=0.5;entryY=0;entryDx=0;entryDy=0;exitX=1;exitY=0.5;exitDx=0;exitDy=0;" edge="1" parent="1" source="TXgYef9cbjbsVy3rm6Yb-11" target="TXgYef9cbjbsVy3rm6Yb-7">
          <mxGeometry relative="1" as="geometry">
            <mxPoint x="654" y="19.5" as="targetPoint" />
            <mxPoint x="605" y="209.5" as="sourcePoint" />
            <Array as="points">
              <mxPoint x="599" y="210" />
              <mxPoint x="655" y="210" />
              <mxPoint x="655" y="73" />
            </Array>
          </mxGeometry>
        </mxCell>
        <mxCell id="TXgYef9cbjbsVy3rm6Yb-11" value="Account not found" style="rounded=1;whiteSpace=wrap;html=1;fillColor=#f8cecc;strokeColor=#b85450;" vertex="1" parent="1">
          <mxGeometry x="479" y="176" width="120" height="60" as="geometry" />
        </mxCell>
        <mxCell id="TXgYef9cbjbsVy3rm6Yb-14" value="Signup/Retry" style="text;html=1;strokeColor=none;fillColor=none;align=center;verticalAlign=middle;whiteSpace=wrap;rounded=0;" vertex="1" parent="1">
          <mxGeometry x="660" y="119" width="60" height="30" as="geometry" />
        </mxCell>
        <mxCell id="TXgYef9cbjbsVy3rm6Yb-18" value="" style="line;strokeWidth=4;html=1;perimeter=backbonePerimeter;points=[];outlineConnect=0;" vertex="1" parent="1">
          <mxGeometry x="114.5" y="306" width="630.5" height="10" as="geometry" />
        </mxCell>
        <mxCell id="TXgYef9cbjbsVy3rm6Yb-20" value="" style="endArrow=classic;html=1;rounded=0;entryX=0.5;entryY=0;entryDx=0;entryDy=0;" edge="1" parent="1" source="TXgYef9cbjbsVy3rm6Yb-18" target="TXgYef9cbjbsVy3rm6Yb-21">
          <mxGeometry width="50" height="50" relative="1" as="geometry">
            <mxPoint x="187" y="397" as="sourcePoint" />
            <mxPoint x="191" y="367" as="targetPoint" />
          </mxGeometry>
        </mxCell>
        <mxCell id="TXgYef9cbjbsVy3rm6Yb-40" style="edgeStyle=orthogonalEdgeStyle;rounded=0;orthogonalLoop=1;jettySize=auto;html=1;" edge="1" parent="1" source="TXgYef9cbjbsVy3rm6Yb-21" target="TXgYef9cbjbsVy3rm6Yb-39">
          <mxGeometry relative="1" as="geometry" />
        </mxCell>
        <mxCell id="TXgYef9cbjbsVy3rm6Yb-21" value="Admin login" style="rounded=1;whiteSpace=wrap;html=1;fillColor=#e1d5e7;strokeColor=#9673a6;" vertex="1" parent="1">
          <mxGeometry x="131" y="359" width="120" height="60" as="geometry" />
        </mxCell>
        <mxCell id="TXgYef9cbjbsVy3rm6Yb-28" style="edgeStyle=orthogonalEdgeStyle;rounded=0;orthogonalLoop=1;jettySize=auto;html=1;" edge="1" parent="1" source="TXgYef9cbjbsVy3rm6Yb-22" target="TXgYef9cbjbsVy3rm6Yb-27">
          <mxGeometry relative="1" as="geometry" />
        </mxCell>
        <mxCell id="TXgYef9cbjbsVy3rm6Yb-22" value="User login" style="rounded=1;whiteSpace=wrap;html=1;fillColor=#ffe6cc;strokeColor=#d79b00;" vertex="1" parent="1">
          <mxGeometry x="540" y="359" width="120" height="60" as="geometry" />
        </mxCell>
        <mxCell id="TXgYef9cbjbsVy3rm6Yb-23" value="" style="endArrow=classic;html=1;rounded=0;entryX=0.5;entryY=0;entryDx=0;entryDy=0;" edge="1" parent="1" source="TXgYef9cbjbsVy3rm6Yb-18" target="TXgYef9cbjbsVy3rm6Yb-22">
          <mxGeometry width="50" height="50" relative="1" as="geometry">
            <mxPoint x="420" y="390" as="sourcePoint" />
            <mxPoint x="510" y="351" as="targetPoint" />
          </mxGeometry>
        </mxCell>
        <mxCell id="TXgYef9cbjbsVy3rm6Yb-31" style="edgeStyle=orthogonalEdgeStyle;rounded=0;orthogonalLoop=1;jettySize=auto;html=1;entryX=0.5;entryY=0;entryDx=0;entryDy=0;" edge="1" parent="1" source="TXgYef9cbjbsVy3rm6Yb-27" target="TXgYef9cbjbsVy3rm6Yb-29">
          <mxGeometry relative="1" as="geometry" />
        </mxCell>
        <mxCell id="TXgYef9cbjbsVy3rm6Yb-34" style="edgeStyle=orthogonalEdgeStyle;rounded=0;orthogonalLoop=1;jettySize=auto;html=1;entryX=0.5;entryY=0;entryDx=0;entryDy=0;" edge="1" parent="1" source="TXgYef9cbjbsVy3rm6Yb-27" target="TXgYef9cbjbsVy3rm6Yb-33">
          <mxGeometry relative="1" as="geometry" />
        </mxCell>
        <mxCell id="TXgYef9cbjbsVy3rm6Yb-27" value="User Books an Appointment" style="rhombus;whiteSpace=wrap;html=1;fillColor=#dae8fc;strokeColor=#6c8ebf;" vertex="1" parent="1">
          <mxGeometry x="528" y="462" width="144" height="80" as="geometry" />
        </mxCell>
        <mxCell id="TXgYef9cbjbsVy3rm6Yb-38" style="edgeStyle=orthogonalEdgeStyle;rounded=0;orthogonalLoop=1;jettySize=auto;html=1;" edge="1" parent="1" source="TXgYef9cbjbsVy3rm6Yb-29" target="TXgYef9cbjbsVy3rm6Yb-37">
          <mxGeometry relative="1" as="geometry" />
        </mxCell>
        <mxCell id="TXgYef9cbjbsVy3rm6Yb-29" value="Found empty slot" style="rounded=1;whiteSpace=wrap;html=1;fillColor=#d5e8d4;strokeColor=#82b366;" vertex="1" parent="1">
          <mxGeometry x="430" y="558" width="85" height="60" as="geometry" />
        </mxCell>
        <mxCell id="TXgYef9cbjbsVy3rm6Yb-35" style="edgeStyle=orthogonalEdgeStyle;rounded=0;orthogonalLoop=1;jettySize=auto;html=1;entryX=0.5;entryY=0;entryDx=0;entryDy=0;" edge="1" parent="1" source="TXgYef9cbjbsVy3rm6Yb-33" target="TXgYef9cbjbsVy3rm6Yb-27">
          <mxGeometry relative="1" as="geometry">
            <mxPoint x="780" y="383" as="targetPoint" />
            <Array as="points">
              <mxPoint x="781" y="588" />
              <mxPoint x="781" y="462" />
            </Array>
          </mxGeometry>
        </mxCell>
        <mxCell id="TXgYef9cbjbsVy3rm6Yb-36" value="Try next day" style="edgeLabel;html=1;align=center;verticalAlign=middle;resizable=0;points=[];" vertex="1" connectable="0" parent="TXgYef9cbjbsVy3rm6Yb-35">
          <mxGeometry x="0.5593" y="-1" relative="1" as="geometry">
            <mxPoint x="48" y="-11" as="offset" />
          </mxGeometry>
        </mxCell>
        <mxCell id="TXgYef9cbjbsVy3rm6Yb-33" value="No empty slot" style="rounded=1;whiteSpace=wrap;html=1;fillColor=#f8cecc;strokeColor=#b85450;" vertex="1" parent="1">
          <mxGeometry x="675" y="558" width="85" height="60" as="geometry" />
        </mxCell>
        <mxCell id="TXgYef9cbjbsVy3rm6Yb-54" style="edgeStyle=orthogonalEdgeStyle;rounded=0;orthogonalLoop=1;jettySize=auto;html=1;" edge="1" parent="1" source="TXgYef9cbjbsVy3rm6Yb-37" target="TXgYef9cbjbsVy3rm6Yb-52">
          <mxGeometry relative="1" as="geometry" />
        </mxCell>
        <mxCell id="TXgYef9cbjbsVy3rm6Yb-37" value="Book slot with description" style="rounded=1;whiteSpace=wrap;html=1;fillColor=#ffe6cc;strokeColor=#d79b00;" vertex="1" parent="1">
          <mxGeometry x="491" y="683" width="234" height="68" as="geometry" />
        </mxCell>
        <mxCell id="TXgYef9cbjbsVy3rm6Yb-42" style="edgeStyle=orthogonalEdgeStyle;rounded=0;orthogonalLoop=1;jettySize=auto;html=1;entryX=0.5;entryY=0;entryDx=0;entryDy=0;" edge="1" parent="1" source="TXgYef9cbjbsVy3rm6Yb-39" target="TXgYef9cbjbsVy3rm6Yb-41">
          <mxGeometry relative="1" as="geometry" />
        </mxCell>
        <mxCell id="TXgYef9cbjbsVy3rm6Yb-39" value="Requested appointments" style="rounded=1;whiteSpace=wrap;html=1;fillColor=#e1d5e7;strokeColor=#9673a6;" vertex="1" parent="1">
          <mxGeometry x="101.5" y="493" width="179" height="60" as="geometry" />
        </mxCell>
        <mxCell id="TXgYef9cbjbsVy3rm6Yb-45" style="edgeStyle=orthogonalEdgeStyle;rounded=0;orthogonalLoop=1;jettySize=auto;html=1;entryX=0.5;entryY=0;entryDx=0;entryDy=0;" edge="1" parent="1" source="TXgYef9cbjbsVy3rm6Yb-41" target="TXgYef9cbjbsVy3rm6Yb-43">
          <mxGeometry relative="1" as="geometry" />
        </mxCell>
        <mxCell id="TXgYef9cbjbsVy3rm6Yb-49" style="edgeStyle=orthogonalEdgeStyle;rounded=0;orthogonalLoop=1;jettySize=auto;html=1;entryX=0.5;entryY=0;entryDx=0;entryDy=0;" edge="1" parent="1" source="TXgYef9cbjbsVy3rm6Yb-41" target="TXgYef9cbjbsVy3rm6Yb-47">
          <mxGeometry relative="1" as="geometry" />
        </mxCell>
        <mxCell id="TXgYef9cbjbsVy3rm6Yb-41" value="Time schedule" style="rhombus;whiteSpace=wrap;html=1;fillColor=#dae8fc;strokeColor=#6c8ebf;" vertex="1" parent="1">
          <mxGeometry x="125.5" y="603" width="131" height="80" as="geometry" />
        </mxCell>
        <mxCell id="TXgYef9cbjbsVy3rm6Yb-53" style="edgeStyle=orthogonalEdgeStyle;rounded=0;orthogonalLoop=1;jettySize=auto;html=1;entryX=0;entryY=0.5;entryDx=0;entryDy=0;" edge="1" parent="1" source="TXgYef9cbjbsVy3rm6Yb-43" target="TXgYef9cbjbsVy3rm6Yb-52">
          <mxGeometry relative="1" as="geometry">
            <mxPoint x="69" y="810.6000366210938" as="targetPoint" />
          </mxGeometry>
        </mxCell>
        <mxCell id="TXgYef9cbjbsVy3rm6Yb-43" value="Appointment scheduled" style="rounded=1;whiteSpace=wrap;html=1;fillColor=#d5e8d4;strokeColor=#82b366;" vertex="1" parent="1">
          <mxGeometry x="23.5" y="696" width="91" height="47" as="geometry" />
        </mxCell>
        <mxCell id="TXgYef9cbjbsVy3rm6Yb-50" style="edgeStyle=orthogonalEdgeStyle;rounded=0;orthogonalLoop=1;jettySize=auto;html=1;entryX=0.5;entryY=0;entryDx=0;entryDy=0;" edge="1" parent="1" source="TXgYef9cbjbsVy3rm6Yb-47" target="TXgYef9cbjbsVy3rm6Yb-41">
          <mxGeometry relative="1" as="geometry">
            <mxPoint x="373" y="561" as="targetPoint" />
            <Array as="points">
              <mxPoint x="374" y="720" />
              <mxPoint x="374" y="603" />
            </Array>
          </mxGeometry>
        </mxCell>
        <mxCell id="TXgYef9cbjbsVy3rm6Yb-47" value="Appointment Re-scheduled" style="rounded=1;whiteSpace=wrap;html=1;fillColor=#f8cecc;strokeColor=#b85450;" vertex="1" parent="1">
          <mxGeometry x="267" y="696" width="91" height="47" as="geometry" />
        </mxCell>
        <mxCell id="TXgYef9cbjbsVy3rm6Yb-51" value="Rescheduled/next day" style="text;html=1;strokeColor=none;fillColor=none;align=center;verticalAlign=middle;whiteSpace=wrap;rounded=0;" vertex="1" parent="1">
          <mxGeometry x="232" y="576" width="129" height="30" as="geometry" />
        </mxCell>
        <mxCell id="TXgYef9cbjbsVy3rm6Yb-57" style="edgeStyle=orthogonalEdgeStyle;rounded=0;orthogonalLoop=1;jettySize=auto;html=1;" edge="1" parent="1" source="TXgYef9cbjbsVy3rm6Yb-52" target="TXgYef9cbjbsVy3rm6Yb-56">
          <mxGeometry relative="1" as="geometry" />
        </mxCell>
        <mxCell id="TXgYef9cbjbsVy3rm6Yb-52" value="Appointment booked" style="rounded=1;whiteSpace=wrap;html=1;fillColor=#e1d5e7;strokeColor=#9673a6;" vertex="1" parent="1">
          <mxGeometry x="229" y="849" width="349" height="60" as="geometry" />
        </mxCell>
        <mxCell id="TXgYef9cbjbsVy3rm6Yb-55" value="If free" style="text;html=1;strokeColor=none;fillColor=none;align=center;verticalAlign=middle;whiteSpace=wrap;rounded=0;" vertex="1" parent="1">
          <mxGeometry x="55" y="613" width="60" height="30" as="geometry" />
        </mxCell>
        <mxCell id="TXgYef9cbjbsVy3rm6Yb-56" value="" style="ellipse;html=1;shape=endState;fillColor=#000000;strokeColor=#ff0000;" vertex="1" parent="1">
          <mxGeometry x="388.5" y="982" width="30" height="30" as="geometry" />
        </mxCell>
        <mxCell id="TXgYef9cbjbsVy3rm6Yb-58" value="End" style="text;html=1;strokeColor=none;fillColor=none;align=center;verticalAlign=middle;whiteSpace=wrap;rounded=0;" vertex="1" parent="1">
          <mxGeometry x="408" y="982" width="60" height="30" as="geometry" />
        </mxCell>
        <mxCell id="TXgYef9cbjbsVy3rm6Yb-59" value="Working" style="text;html=1;strokeColor=none;fillColor=none;align=center;verticalAlign=middle;whiteSpace=wrap;rounded=0;" vertex="1" parent="1">
          <mxGeometry x="60" y="7" width="60" height="30" as="geometry" />
        </mxCell>
      </root>
    </mxGraphModel>
  </diagram>
</mxfile>
